<mxfile host="app.diagrams.net" agent="Mozilla/5.0 (Windows NT 10.0; Win64; x64; rv:138.0) Gecko/20100101 Firefox/138.0" version="27.0.3">
  <diagram id="prtHgNgQTEPvFCAcTncT" name="Page-1">
    <mxGraphModel dx="1226" dy="662" grid="1" gridSize="10" guides="1" tooltips="1" connect="1" arrows="1" fold="1" page="1" pageScale="1" pageWidth="1000" pageHeight="1000" background="none" math="0" shadow="0">
      <root>
        <mxCell id="0" />
        <mxCell id="1" parent="0" />
        <mxCell id="kjm5t4OXg60oh5kjhh82-11" value="FSR 75" style="endArrow=none;html=1;rounded=0;dashed=1;fillColor=#f8cecc;strokeColor=#b85450;" edge="1" parent="1" source="kjm5t4OXg60oh5kjhh82-1" target="kjm5t4OXg60oh5kjhh82-7">
          <mxGeometry width="50" height="50" relative="1" as="geometry">
            <mxPoint x="140" y="300" as="sourcePoint" />
            <mxPoint x="190" y="250" as="targetPoint" />
          </mxGeometry>
        </mxCell>
        <mxCell id="kjm5t4OXg60oh5kjhh82-15" value="" style="endArrow=none;html=1;rounded=0;strokeWidth=2;" edge="1" parent="1">
          <mxGeometry width="50" height="50" relative="1" as="geometry">
            <mxPoint x="10" y="500" as="sourcePoint" />
            <mxPoint x="990" y="500" as="targetPoint" />
          </mxGeometry>
        </mxCell>
        <mxCell id="kjm5t4OXg60oh5kjhh82-1" value="" style="ellipse;whiteSpace=wrap;html=1;aspect=fixed;fillColor=#f8cecc;strokeColor=#b85450;container=0;" vertex="1" parent="1">
          <mxGeometry x="100" y="220" width="20" height="20" as="geometry" />
        </mxCell>
        <mxCell id="kjm5t4OXg60oh5kjhh82-2" value="&lt;span style=&quot;background-color: light-dark(#ffffff, var(--ge-dark-color, #121212));&quot;&gt;Vantea&lt;/span&gt;" style="text;html=1;align=center;verticalAlign=middle;whiteSpace=wrap;rounded=0;fontFamily=Verdana;container=0;" vertex="1" parent="1">
          <mxGeometry x="80" y="200" width="60" height="20" as="geometry" />
        </mxCell>
        <mxCell id="kjm5t4OXg60oh5kjhh82-7" value="" style="ellipse;whiteSpace=wrap;html=1;aspect=fixed;fillColor=#f8cecc;strokeColor=#b85450;container=0;" vertex="1" parent="1">
          <mxGeometry x="200" y="60" width="20" height="20" as="geometry" />
        </mxCell>
        <mxCell id="kjm5t4OXg60oh5kjhh82-8" value="Pakia" style="text;html=1;align=center;verticalAlign=middle;whiteSpace=wrap;rounded=0;fontFamily=Verdana;container=0;" vertex="1" parent="1">
          <mxGeometry x="180" y="40" width="60" height="20" as="geometry" />
        </mxCell>
        <mxCell id="kjm5t4OXg60oh5kjhh82-34" value="" style="ellipse;whiteSpace=wrap;html=1;aspect=fixed;fillColor=#f8cecc;strokeColor=#b85450;container=0;" vertex="1" parent="1">
          <mxGeometry x="320" y="140" width="20" height="20" as="geometry" />
        </mxCell>
        <mxCell id="kjm5t4OXg60oh5kjhh82-35" value="" style="ellipse;whiteSpace=wrap;html=1;aspect=fixed;fillColor=#f8cecc;strokeColor=#b85450;container=0;" vertex="1" parent="1">
          <mxGeometry x="280" y="320" width="20" height="20" as="geometry" />
        </mxCell>
        <mxCell id="kjm5t4OXg60oh5kjhh82-36" value="" style="ellipse;whiteSpace=wrap;html=1;aspect=fixed;fillColor=#f8cecc;strokeColor=#b85450;container=0;" vertex="1" parent="1">
          <mxGeometry x="620" y="120" width="20" height="20" as="geometry" />
        </mxCell>
        <mxCell id="kjm5t4OXg60oh5kjhh82-37" value="" style="ellipse;whiteSpace=wrap;html=1;aspect=fixed;fillColor=#f8cecc;strokeColor=#b85450;container=0;" vertex="1" parent="1">
          <mxGeometry x="480" y="220" width="20" height="20" as="geometry" />
        </mxCell>
        <mxCell id="kjm5t4OXg60oh5kjhh82-38" value="" style="ellipse;whiteSpace=wrap;html=1;aspect=fixed;fillColor=#f8cecc;strokeColor=#b85450;container=0;" vertex="1" parent="1">
          <mxGeometry x="60" y="390" width="20" height="20" as="geometry" />
        </mxCell>
        <mxCell id="kjm5t4OXg60oh5kjhh82-39" value="" style="ellipse;whiteSpace=wrap;html=1;aspect=fixed;fillColor=#dae8fc;strokeColor=#6c8ebf;container=0;" vertex="1" parent="1">
          <mxGeometry x="630" y="320" width="20" height="20" as="geometry" />
        </mxCell>
        <mxCell id="kjm5t4OXg60oh5kjhh82-40" value="" style="ellipse;whiteSpace=wrap;html=1;aspect=fixed;fillColor=#dae8fc;strokeColor=#6c8ebf;container=0;" vertex="1" parent="1">
          <mxGeometry x="560" y="150" width="20" height="20" as="geometry" />
        </mxCell>
        <mxCell id="kjm5t4OXg60oh5kjhh82-41" value="" style="ellipse;whiteSpace=wrap;html=1;aspect=fixed;fillColor=#dae8fc;strokeColor=#6c8ebf;container=0;" vertex="1" parent="1">
          <mxGeometry x="790" y="250" width="20" height="20" as="geometry" />
        </mxCell>
        <mxCell id="kjm5t4OXg60oh5kjhh82-42" value="" style="ellipse;whiteSpace=wrap;html=1;aspect=fixed;fillColor=#dae8fc;strokeColor=#6c8ebf;container=0;" vertex="1" parent="1">
          <mxGeometry x="820" y="380" width="20" height="20" as="geometry" />
        </mxCell>
        <mxCell id="kjm5t4OXg60oh5kjhh82-43" value="" style="ellipse;whiteSpace=wrap;html=1;aspect=fixed;fillColor=#dae8fc;strokeColor=#6c8ebf;container=0;" vertex="1" parent="1">
          <mxGeometry x="860" y="50" width="20" height="20" as="geometry" />
        </mxCell>
        <mxCell id="kjm5t4OXg60oh5kjhh82-44" value="" style="ellipse;whiteSpace=wrap;html=1;aspect=fixed;fillColor=#f8cecc;strokeColor=#b85450;container=0;" vertex="1" parent="1">
          <mxGeometry x="490" y="260" width="20" height="20" as="geometry" />
        </mxCell>
        <mxCell id="kjm5t4OXg60oh5kjhh82-45" value="FSR 75" style="endArrow=none;html=1;rounded=0;dashed=1;dashPattern=8 8;strokeWidth=1;fillColor=#f8cecc;strokeColor=#b85450;" edge="1" parent="1" source="kjm5t4OXg60oh5kjhh82-7" target="kjm5t4OXg60oh5kjhh82-36">
          <mxGeometry width="50" height="50" relative="1" as="geometry">
            <mxPoint x="410" y="270" as="sourcePoint" />
            <mxPoint x="530" y="120" as="targetPoint" />
          </mxGeometry>
        </mxCell>
        <mxCell id="kjm5t4OXg60oh5kjhh82-46" value="" style="endArrow=none;html=1;rounded=0;dashed=1;dashPattern=8 8;" edge="1" parent="1" source="kjm5t4OXg60oh5kjhh82-40" target="kjm5t4OXg60oh5kjhh82-36">
          <mxGeometry width="50" height="50" relative="1" as="geometry">
            <mxPoint x="720" y="200" as="sourcePoint" />
            <mxPoint x="720" y="150" as="targetPoint" />
          </mxGeometry>
        </mxCell>
        <mxCell id="kjm5t4OXg60oh5kjhh82-47" value="Vax 1" style="text;html=1;align=center;verticalAlign=middle;whiteSpace=wrap;rounded=0;fontFamily=Verdana;container=0;" vertex="1" parent="1">
          <mxGeometry x="540" y="130" width="60" height="20" as="geometry" />
        </mxCell>
        <mxCell id="kjm5t4OXg60oh5kjhh82-48" value="Vei Kan" style="text;html=1;align=center;verticalAlign=middle;whiteSpace=wrap;rounded=0;fontFamily=Verdana;container=0;" vertex="1" parent="1">
          <mxGeometry x="600" y="100" width="60" height="20" as="geometry" />
        </mxCell>
        <mxCell id="kjm5t4OXg60oh5kjhh82-50" value="Vax 2" style="text;html=1;align=center;verticalAlign=middle;whiteSpace=wrap;rounded=0;fontFamily=Verdana;container=0;" vertex="1" parent="1">
          <mxGeometry x="610" y="300" width="60" height="20" as="geometry" />
        </mxCell>
        <mxCell id="kjm5t4OXg60oh5kjhh82-51" value="Palanta" style="text;html=1;align=center;verticalAlign=middle;whiteSpace=wrap;rounded=0;fontFamily=Verdana;container=0;" vertex="1" parent="1">
          <mxGeometry x="770" y="230" width="60" height="20" as="geometry" />
        </mxCell>
        <mxCell id="kjm5t4OXg60oh5kjhh82-52" value="Palanta 10" style="endArrow=none;html=1;rounded=0;dashed=1;strokeWidth=1;fillColor=#dae8fc;strokeColor=#6c8ebf;" edge="1" parent="1" source="kjm5t4OXg60oh5kjhh82-40" target="kjm5t4OXg60oh5kjhh82-41">
          <mxGeometry width="50" height="50" relative="1" as="geometry">
            <mxPoint x="400" y="202" as="sourcePoint" />
            <mxPoint x="810" y="280" as="targetPoint" />
          </mxGeometry>
        </mxCell>
        <mxCell id="kjm5t4OXg60oh5kjhh82-54" value="Van Pasa" style="text;html=1;align=center;verticalAlign=middle;whiteSpace=wrap;rounded=0;fontFamily=Verdana;container=0;" vertex="1" parent="1">
          <mxGeometry x="300" y="120" width="60" height="20" as="geometry" />
        </mxCell>
        <mxCell id="kjm5t4OXg60oh5kjhh82-57" value="Van Packia" style="text;html=1;align=center;verticalAlign=middle;whiteSpace=wrap;rounded=0;fontFamily=Verdana;container=0;" vertex="1" parent="1">
          <mxGeometry x="455" y="200" width="70" height="20" as="geometry" />
        </mxCell>
        <mxCell id="kjm5t4OXg60oh5kjhh82-58" value="Vax 3" style="text;html=1;align=center;verticalAlign=middle;whiteSpace=wrap;rounded=0;fontFamily=Verdana;container=0;" vertex="1" parent="1">
          <mxGeometry x="470" y="240" width="60" height="20" as="geometry" />
        </mxCell>
        <mxCell id="kjm5t4OXg60oh5kjhh82-61" value="KVS 192" style="text;html=1;align=center;verticalAlign=middle;whiteSpace=wrap;rounded=0;fontFamily=Verdana;container=0;" vertex="1" parent="1">
          <mxGeometry x="35" y="370" width="70" height="20" as="geometry" />
        </mxCell>
        <mxCell id="kjm5t4OXg60oh5kjhh82-62" value="KVS 194" style="text;html=1;align=center;verticalAlign=middle;whiteSpace=wrap;rounded=0;fontFamily=Verdana;container=0;" vertex="1" parent="1">
          <mxGeometry x="255" y="300" width="70" height="20" as="geometry" />
        </mxCell>
        <mxCell id="kjm5t4OXg60oh5kjhh82-63" value="FSR 75" style="endArrow=none;html=1;rounded=0;dashed=1;strokeWidth=1;fillColor=#f8cecc;strokeColor=#b85450;" edge="1" parent="1" target="kjm5t4OXg60oh5kjhh82-1">
          <mxGeometry width="50" height="50" relative="1" as="geometry">
            <mxPoint x="10" y="230" as="sourcePoint" />
            <mxPoint x="140" y="308" as="targetPoint" />
          </mxGeometry>
        </mxCell>
        <mxCell id="kjm5t4OXg60oh5kjhh82-64" value="V08-K192" style="endArrow=none;html=1;rounded=0;dashed=1;dashPattern=12 12;strokeWidth=1;fillColor=#f8cecc;strokeColor=#b85450;" edge="1" parent="1" source="kjm5t4OXg60oh5kjhh82-38" target="kjm5t4OXg60oh5kjhh82-1">
          <mxGeometry width="50" height="50" relative="1" as="geometry">
            <mxPoint x="20" y="290" as="sourcePoint" />
            <mxPoint x="420" y="348" as="targetPoint" />
          </mxGeometry>
        </mxCell>
        <mxCell id="kjm5t4OXg60oh5kjhh82-65" value="V08-K194" style="endArrow=none;html=1;rounded=0;dashed=1;dashPattern=12 12;strokeWidth=1;fillColor=#f8cecc;strokeColor=#b85450;" edge="1" parent="1" source="kjm5t4OXg60oh5kjhh82-35" target="kjm5t4OXg60oh5kjhh82-1">
          <mxGeometry width="50" height="50" relative="1" as="geometry">
            <mxPoint x="150" y="385" as="sourcePoint" />
            <mxPoint x="186" y="235" as="targetPoint" />
          </mxGeometry>
        </mxCell>
        <mxCell id="kjm5t4OXg60oh5kjhh82-66" value="Van Pasa EX" style="endArrow=none;html=1;rounded=0;dashed=1;dashPattern=12 12;fillColor=#f8cecc;strokeColor=#b85450;" edge="1" parent="1" source="kjm5t4OXg60oh5kjhh82-34" target="kjm5t4OXg60oh5kjhh82-7">
          <mxGeometry width="50" height="50" relative="1" as="geometry">
            <mxPoint x="260" y="160" as="sourcePoint" />
            <mxPoint x="220" y="90" as="targetPoint" />
          </mxGeometry>
        </mxCell>
        <mxCell id="kjm5t4OXg60oh5kjhh82-67" value="Van Pasa EX" style="endArrow=none;html=1;rounded=0;dashed=1;dashPattern=12 12;fillColor=#f8cecc;strokeColor=#b85450;" edge="1" parent="1" source="kjm5t4OXg60oh5kjhh82-37" target="kjm5t4OXg60oh5kjhh82-34">
          <mxGeometry width="50" height="50" relative="1" as="geometry">
            <mxPoint x="332" y="154" as="sourcePoint" />
            <mxPoint x="332" y="210" as="targetPoint" />
          </mxGeometry>
        </mxCell>
        <mxCell id="kjm5t4OXg60oh5kjhh82-68" value="Palanta 10" style="endArrow=none;html=1;rounded=0;dashed=1;strokeWidth=1;fillColor=#dae8fc;strokeColor=#6c8ebf;" edge="1" parent="1" source="kjm5t4OXg60oh5kjhh82-41">
          <mxGeometry width="50" height="50" relative="1" as="geometry">
            <mxPoint x="589" y="174" as="sourcePoint" />
            <mxPoint x="990" y="260" as="targetPoint" />
          </mxGeometry>
        </mxCell>
        <mxCell id="kjm5t4OXg60oh5kjhh82-69" value="Castlio 2" style="text;html=1;align=center;verticalAlign=middle;whiteSpace=wrap;rounded=0;fontFamily=Verdana;container=0;" vertex="1" parent="1">
          <mxGeometry x="800" y="360" width="60" height="20" as="geometry" />
        </mxCell>
        <mxCell id="kjm5t4OXg60oh5kjhh82-70" value="Vax 4" style="text;html=1;align=center;verticalAlign=middle;whiteSpace=wrap;rounded=0;fontFamily=Verdana;container=0;" vertex="1" parent="1">
          <mxGeometry x="840" y="30" width="60" height="20" as="geometry" />
        </mxCell>
        <mxCell id="kjm5t4OXg60oh5kjhh82-71" value="Palanta 10C2" style="endArrow=none;html=1;rounded=0;dashed=1;strokeWidth=1;fillColor=#dae8fc;strokeColor=#6c8ebf;dashPattern=8 8;exitX=0.678;exitY=0.554;exitDx=0;exitDy=0;exitPerimeter=0;" edge="1" parent="1" source="kjm5t4OXg60oh5kjhh82-41" target="kjm5t4OXg60oh5kjhh82-42">
          <mxGeometry width="50" height="50" relative="1" as="geometry">
            <mxPoint x="820" y="270" as="sourcePoint" />
            <mxPoint x="1010" y="270" as="targetPoint" />
          </mxGeometry>
        </mxCell>
        <mxCell id="kjm5t4OXg60oh5kjhh82-72" value="FSR 75" style="endArrow=none;html=1;rounded=0;dashed=1;fillColor=#f8cecc;strokeColor=#b85450;" edge="1" parent="1" source="kjm5t4OXg60oh5kjhh82-73" target="kjm5t4OXg60oh5kjhh82-75">
          <mxGeometry width="50" height="50" relative="1" as="geometry">
            <mxPoint x="165" y="820" as="sourcePoint" />
            <mxPoint x="215" y="770" as="targetPoint" />
          </mxGeometry>
        </mxCell>
        <mxCell id="kjm5t4OXg60oh5kjhh82-73" value="" style="ellipse;whiteSpace=wrap;html=1;aspect=fixed;fillColor=#f8cecc;strokeColor=#b85450;container=0;" vertex="1" parent="1">
          <mxGeometry x="125" y="740" width="20" height="20" as="geometry" />
        </mxCell>
        <mxCell id="kjm5t4OXg60oh5kjhh82-74" value="&lt;span style=&quot;background-color: light-dark(#ffffff, var(--ge-dark-color, #121212));&quot;&gt;Vantea&lt;/span&gt;" style="text;html=1;align=center;verticalAlign=middle;whiteSpace=wrap;rounded=0;fontFamily=Verdana;container=0;" vertex="1" parent="1">
          <mxGeometry x="105" y="720" width="60" height="20" as="geometry" />
        </mxCell>
        <mxCell id="kjm5t4OXg60oh5kjhh82-75" value="" style="ellipse;whiteSpace=wrap;html=1;aspect=fixed;fillColor=#f8cecc;strokeColor=#b85450;container=0;" vertex="1" parent="1">
          <mxGeometry x="225" y="580" width="20" height="20" as="geometry" />
        </mxCell>
        <mxCell id="kjm5t4OXg60oh5kjhh82-76" value="Pakia" style="text;html=1;align=center;verticalAlign=middle;whiteSpace=wrap;rounded=0;fontFamily=Verdana;container=0;" vertex="1" parent="1">
          <mxGeometry x="205" y="560" width="60" height="20" as="geometry" />
        </mxCell>
        <mxCell id="kjm5t4OXg60oh5kjhh82-77" value="" style="ellipse;whiteSpace=wrap;html=1;aspect=fixed;fillColor=#f8cecc;strokeColor=#b85450;container=0;" vertex="1" parent="1">
          <mxGeometry x="345" y="660" width="20" height="20" as="geometry" />
        </mxCell>
        <mxCell id="kjm5t4OXg60oh5kjhh82-78" value="" style="ellipse;whiteSpace=wrap;html=1;aspect=fixed;fillColor=#f8cecc;strokeColor=#b85450;container=0;" vertex="1" parent="1">
          <mxGeometry x="305" y="840" width="20" height="20" as="geometry" />
        </mxCell>
        <mxCell id="kjm5t4OXg60oh5kjhh82-79" value="" style="ellipse;whiteSpace=wrap;html=1;aspect=fixed;fillColor=#f8cecc;strokeColor=#b85450;container=0;" vertex="1" parent="1">
          <mxGeometry x="645" y="640" width="20" height="20" as="geometry" />
        </mxCell>
        <mxCell id="kjm5t4OXg60oh5kjhh82-80" value="" style="ellipse;whiteSpace=wrap;html=1;aspect=fixed;fillColor=#f8cecc;strokeColor=#b85450;container=0;" vertex="1" parent="1">
          <mxGeometry x="505" y="740" width="20" height="20" as="geometry" />
        </mxCell>
        <mxCell id="kjm5t4OXg60oh5kjhh82-81" value="" style="ellipse;whiteSpace=wrap;html=1;aspect=fixed;fillColor=#f8cecc;strokeColor=#b85450;container=0;" vertex="1" parent="1">
          <mxGeometry x="85" y="910" width="20" height="20" as="geometry" />
        </mxCell>
        <mxCell id="kjm5t4OXg60oh5kjhh82-82" value="" style="ellipse;whiteSpace=wrap;html=1;aspect=fixed;fillColor=#dae8fc;strokeColor=#6c8ebf;container=0;" vertex="1" parent="1">
          <mxGeometry x="655" y="840" width="20" height="20" as="geometry" />
        </mxCell>
        <mxCell id="kjm5t4OXg60oh5kjhh82-83" value="" style="ellipse;whiteSpace=wrap;html=1;aspect=fixed;fillColor=#dae8fc;strokeColor=#6c8ebf;container=0;" vertex="1" parent="1">
          <mxGeometry x="585" y="670" width="20" height="20" as="geometry" />
        </mxCell>
        <mxCell id="kjm5t4OXg60oh5kjhh82-84" value="" style="ellipse;whiteSpace=wrap;html=1;aspect=fixed;fillColor=#dae8fc;strokeColor=#6c8ebf;container=0;" vertex="1" parent="1">
          <mxGeometry x="815" y="770" width="20" height="20" as="geometry" />
        </mxCell>
        <mxCell id="kjm5t4OXg60oh5kjhh82-85" value="" style="ellipse;whiteSpace=wrap;html=1;aspect=fixed;fillColor=#dae8fc;strokeColor=#6c8ebf;container=0;" vertex="1" parent="1">
          <mxGeometry x="845" y="900" width="20" height="20" as="geometry" />
        </mxCell>
        <mxCell id="kjm5t4OXg60oh5kjhh82-86" value="" style="ellipse;whiteSpace=wrap;html=1;aspect=fixed;fillColor=#dae8fc;strokeColor=#6c8ebf;container=0;" vertex="1" parent="1">
          <mxGeometry x="885" y="570" width="20" height="20" as="geometry" />
        </mxCell>
        <mxCell id="kjm5t4OXg60oh5kjhh82-87" value="" style="ellipse;whiteSpace=wrap;html=1;aspect=fixed;fillColor=#f8cecc;strokeColor=#b85450;container=0;" vertex="1" parent="1">
          <mxGeometry x="515" y="780" width="20" height="20" as="geometry" />
        </mxCell>
        <mxCell id="kjm5t4OXg60oh5kjhh82-88" value="FSR 75" style="endArrow=none;html=1;rounded=0;dashed=1;dashPattern=8 8;strokeWidth=1;fillColor=#f8cecc;strokeColor=#b85450;" edge="1" parent="1" source="kjm5t4OXg60oh5kjhh82-75" target="kjm5t4OXg60oh5kjhh82-79">
          <mxGeometry width="50" height="50" relative="1" as="geometry">
            <mxPoint x="435" y="790" as="sourcePoint" />
            <mxPoint x="555" y="640" as="targetPoint" />
          </mxGeometry>
        </mxCell>
        <mxCell id="kjm5t4OXg60oh5kjhh82-89" value="" style="endArrow=none;html=1;rounded=0;dashed=1;dashPattern=8 8;" edge="1" parent="1" source="kjm5t4OXg60oh5kjhh82-83" target="kjm5t4OXg60oh5kjhh82-79">
          <mxGeometry width="50" height="50" relative="1" as="geometry">
            <mxPoint x="745" y="720" as="sourcePoint" />
            <mxPoint x="745" y="670" as="targetPoint" />
          </mxGeometry>
        </mxCell>
        <mxCell id="kjm5t4OXg60oh5kjhh82-90" value="Vax 1" style="text;html=1;align=center;verticalAlign=middle;whiteSpace=wrap;rounded=0;fontFamily=Verdana;container=0;" vertex="1" parent="1">
          <mxGeometry x="565" y="650" width="60" height="20" as="geometry" />
        </mxCell>
        <mxCell id="kjm5t4OXg60oh5kjhh82-91" value="Vei Kan" style="text;html=1;align=center;verticalAlign=middle;whiteSpace=wrap;rounded=0;fontFamily=Verdana;container=0;" vertex="1" parent="1">
          <mxGeometry x="625" y="620" width="60" height="20" as="geometry" />
        </mxCell>
        <mxCell id="kjm5t4OXg60oh5kjhh82-92" value="Vax 2" style="text;html=1;align=center;verticalAlign=middle;whiteSpace=wrap;rounded=0;fontFamily=Verdana;container=0;" vertex="1" parent="1">
          <mxGeometry x="635" y="820" width="60" height="20" as="geometry" />
        </mxCell>
        <mxCell id="kjm5t4OXg60oh5kjhh82-93" value="Palanta" style="text;html=1;align=center;verticalAlign=middle;whiteSpace=wrap;rounded=0;fontFamily=Verdana;container=0;" vertex="1" parent="1">
          <mxGeometry x="795" y="750" width="60" height="20" as="geometry" />
        </mxCell>
        <mxCell id="kjm5t4OXg60oh5kjhh82-94" value="Palanta 10" style="endArrow=none;html=1;rounded=0;dashed=1;strokeWidth=1;fillColor=#dae8fc;strokeColor=#6c8ebf;" edge="1" parent="1" source="kjm5t4OXg60oh5kjhh82-83" target="kjm5t4OXg60oh5kjhh82-84">
          <mxGeometry width="50" height="50" relative="1" as="geometry">
            <mxPoint x="425" y="722" as="sourcePoint" />
            <mxPoint x="835" y="800" as="targetPoint" />
          </mxGeometry>
        </mxCell>
        <mxCell id="kjm5t4OXg60oh5kjhh82-95" value="Van Pasa" style="text;html=1;align=center;verticalAlign=middle;whiteSpace=wrap;rounded=0;fontFamily=Verdana;container=0;" vertex="1" parent="1">
          <mxGeometry x="325" y="640" width="60" height="20" as="geometry" />
        </mxCell>
        <mxCell id="kjm5t4OXg60oh5kjhh82-96" value="Van Packia" style="text;html=1;align=center;verticalAlign=middle;whiteSpace=wrap;rounded=0;fontFamily=Verdana;container=0;" vertex="1" parent="1">
          <mxGeometry x="480" y="720" width="70" height="20" as="geometry" />
        </mxCell>
        <mxCell id="kjm5t4OXg60oh5kjhh82-97" value="Vax 3" style="text;html=1;align=center;verticalAlign=middle;whiteSpace=wrap;rounded=0;fontFamily=Verdana;container=0;" vertex="1" parent="1">
          <mxGeometry x="495" y="760" width="60" height="20" as="geometry" />
        </mxCell>
        <mxCell id="kjm5t4OXg60oh5kjhh82-98" value="KVS 192" style="text;html=1;align=center;verticalAlign=middle;whiteSpace=wrap;rounded=0;fontFamily=Verdana;container=0;" vertex="1" parent="1">
          <mxGeometry x="60" y="890" width="70" height="20" as="geometry" />
        </mxCell>
        <mxCell id="kjm5t4OXg60oh5kjhh82-99" value="KVS 194" style="text;html=1;align=center;verticalAlign=middle;whiteSpace=wrap;rounded=0;fontFamily=Verdana;container=0;" vertex="1" parent="1">
          <mxGeometry x="280" y="820" width="70" height="20" as="geometry" />
        </mxCell>
        <mxCell id="kjm5t4OXg60oh5kjhh82-100" value="FSR 75" style="endArrow=none;html=1;rounded=0;dashed=1;strokeWidth=1;fillColor=#f8cecc;strokeColor=#b85450;" edge="1" parent="1" target="kjm5t4OXg60oh5kjhh82-73">
          <mxGeometry width="50" height="50" relative="1" as="geometry">
            <mxPoint x="35" y="750" as="sourcePoint" />
            <mxPoint x="165" y="828" as="targetPoint" />
          </mxGeometry>
        </mxCell>
        <mxCell id="kjm5t4OXg60oh5kjhh82-101" value="V08-K192" style="endArrow=none;html=1;rounded=0;dashed=1;dashPattern=12 12;strokeWidth=1;fillColor=#f8cecc;strokeColor=#b85450;" edge="1" parent="1" source="kjm5t4OXg60oh5kjhh82-81" target="kjm5t4OXg60oh5kjhh82-73">
          <mxGeometry width="50" height="50" relative="1" as="geometry">
            <mxPoint x="45" y="810" as="sourcePoint" />
            <mxPoint x="445" y="868" as="targetPoint" />
          </mxGeometry>
        </mxCell>
        <mxCell id="kjm5t4OXg60oh5kjhh82-102" value="V08-K194" style="endArrow=none;html=1;rounded=0;dashed=1;dashPattern=12 12;strokeWidth=1;fillColor=#f8cecc;strokeColor=#b85450;" edge="1" parent="1" source="kjm5t4OXg60oh5kjhh82-78" target="kjm5t4OXg60oh5kjhh82-73">
          <mxGeometry width="50" height="50" relative="1" as="geometry">
            <mxPoint x="175" y="905" as="sourcePoint" />
            <mxPoint x="211" y="755" as="targetPoint" />
          </mxGeometry>
        </mxCell>
        <mxCell id="kjm5t4OXg60oh5kjhh82-103" value="Van Pasa EX" style="endArrow=none;html=1;rounded=0;dashed=1;dashPattern=12 12;fillColor=#f8cecc;strokeColor=#b85450;" edge="1" parent="1" source="kjm5t4OXg60oh5kjhh82-77" target="kjm5t4OXg60oh5kjhh82-75">
          <mxGeometry width="50" height="50" relative="1" as="geometry">
            <mxPoint x="285" y="680" as="sourcePoint" />
            <mxPoint x="245" y="610" as="targetPoint" />
          </mxGeometry>
        </mxCell>
        <mxCell id="kjm5t4OXg60oh5kjhh82-104" value="Van Pasa EX" style="endArrow=none;html=1;rounded=0;dashed=1;dashPattern=12 12;fillColor=#f8cecc;strokeColor=#b85450;" edge="1" parent="1" source="kjm5t4OXg60oh5kjhh82-80" target="kjm5t4OXg60oh5kjhh82-77">
          <mxGeometry width="50" height="50" relative="1" as="geometry">
            <mxPoint x="357" y="674" as="sourcePoint" />
            <mxPoint x="357" y="730" as="targetPoint" />
          </mxGeometry>
        </mxCell>
        <mxCell id="kjm5t4OXg60oh5kjhh82-105" value="Castlio 2" style="text;html=1;align=center;verticalAlign=middle;whiteSpace=wrap;rounded=0;fontFamily=Verdana;container=0;" vertex="1" parent="1">
          <mxGeometry x="825" y="880" width="60" height="20" as="geometry" />
        </mxCell>
        <mxCell id="kjm5t4OXg60oh5kjhh82-106" value="Vax 4" style="text;html=1;align=center;verticalAlign=middle;whiteSpace=wrap;rounded=0;fontFamily=Verdana;container=0;" vertex="1" parent="1">
          <mxGeometry x="865" y="550" width="60" height="20" as="geometry" />
        </mxCell>
        <mxCell id="kjm5t4OXg60oh5kjhh82-107" value="Palanta 10C2" style="endArrow=none;html=1;rounded=0;dashed=1;strokeWidth=1;fillColor=#dae8fc;strokeColor=#6c8ebf;dashPattern=8 8;exitX=0.678;exitY=0.554;exitDx=0;exitDy=0;exitPerimeter=0;" edge="1" parent="1" source="kjm5t4OXg60oh5kjhh82-84" target="kjm5t4OXg60oh5kjhh82-85">
          <mxGeometry width="50" height="50" relative="1" as="geometry">
            <mxPoint x="845" y="790" as="sourcePoint" />
            <mxPoint x="1035" y="790" as="targetPoint" />
          </mxGeometry>
        </mxCell>
      </root>
    </mxGraphModel>
  </diagram>
</mxfile>
